<svg xmlns="http://www.w3.org/2000/svg" width="50" height="70" viewBox="0 0 50 70">
  <path id="book" d="M50,49.219V3.281C50,1.463,48.806,0,47.321,0H10.714C4.8,0,0,5.879,0,13.125v43.75C0,64.121,4.8,70,10.714,70H47.321C48.806,70,50,68.537,50,66.719V64.531a3.633,3.633,0,0,0-.993-2.557,37.26,37.26,0,0,1,0-10.213A3.575,3.575,0,0,0,50,49.219ZM14.286,18.32a.759.759,0,0,1,.67-.82H38.616a.759.759,0,0,1,.67.82v2.734a.759.759,0,0,1-.67.82H14.955a.759.759,0,0,1-.67-.82Zm0,8.75a.759.759,0,0,1,.67-.82H38.616a.759.759,0,0,1,.67.82V29.8a.759.759,0,0,1-.67.82H14.955a.759.759,0,0,1-.67-.82ZM42.567,61.25H10.714c-1.975,0-3.571-1.955-3.571-4.375S8.75,52.5,10.714,52.5H42.567A60.257,60.257,0,0,0,42.567,61.25Z" fill="rgba(84,88,113,0.6)"/>
</svg>
