<svg xmlns="http://www.w3.org/2000/svg" width="30" height="25" viewBox="0 0 30 25">
  <path id="sign-in-alt-solid" d="M24.375,88.487H19.453a.738.738,0,0,1-.7-.765V85.171a.738.738,0,0,1,.7-.765h4.922a1.961,1.961,0,0,0,1.875-2.041V70.122a1.961,1.961,0,0,0-1.875-2.041H19.453a.738.738,0,0,1-.7-.765V64.765a.738.738,0,0,1,.7-.765h4.922A5.891,5.891,0,0,1,30,70.122V82.365A5.891,5.891,0,0,1,24.375,88.487ZM21.621,75.67,11.777,64.957a1.4,1.4,0,0,0-2.4,1.084v6.122H1.406A1.469,1.469,0,0,0,0,73.693v6.122a1.469,1.469,0,0,0,1.406,1.53H9.375v6.122a1.4,1.4,0,0,0,2.4,1.084l9.844-10.713A1.642,1.642,0,0,0,21.621,75.67Z" transform="translate(0 -64)" fill="#fff"/>
</svg>
